<?xml version="1.0" encoding="UTF-8"?>
<svg xmlns="http://www.w3.org/2000/svg" xmlns:xlink="http://www.w3.org/1999/xlink" width="91pt" height="38pt" viewBox="0 0 91 38" version="1.1">
<g id="surface1">
<path style=" stroke:none;fill-rule:nonzero;fill:rgb(0%,0%,0%);fill-opacity:1;" d="M 90.625 37.46875 L 0 37.46875 L 0 0.683594 L 90.625 0.683594 Z M 90.625 37.46875 "/>
<path style=" stroke:none;fill-rule:nonzero;fill:rgb(100%,100%,100%);fill-opacity:1;" d="M 71.085938 12.652344 C 71.160156 13.714844 70.332031 15.234375 69.730469 15.617188 L 69.355469 15.3125 C 69.957031 14.703125 69.804688 12.878906 69.355469 12.347656 L 69.355469 12.273438 C 69.730469 12.273438 70.40625 12.347656 70.707031 12.5 C 70.933594 12.574219 71.007812 12.652344 71.085938 12.652344 "/>
<path style=" stroke:none;fill-rule:nonzero;fill:rgb(100%,100%,100%);fill-opacity:1;" d="M 78.484375 21.957031 C 78.484375 23.933594 76.980469 25.453125 74.421875 25.453125 C 73.371094 25.453125 72.09375 25.300781 71.488281 24.996094 C 71.488281 24.996094 71.414062 24.921875 71.414062 24.542969 C 71.414062 23.707031 71.488281 22.335938 71.488281 22.109375 L 71.867188 22.109375 C 71.941406 22.414062 71.941406 22.792969 72.167969 23.171875 C 72.542969 24.3125 73.519531 24.769531 74.574219 24.769531 C 75.925781 24.769531 76.753906 24.085938 76.753906 22.792969 C 76.753906 21.882812 76.078125 21.273438 74.949219 20.4375 L 74.199219 19.828125 C 72.695312 18.6875 71.640625 17.550781 71.640625 15.953125 C 71.640625 14.128906 73.070312 12.761719 75.402344 12.761719 C 76.304688 12.761719 77.355469 12.988281 77.730469 13.066406 C 77.957031 13.066406 77.957031 13.140625 77.957031 13.21875 C 77.957031 13.445312 77.882812 14.355469 77.882812 15.574219 L 77.507812 15.574219 C 77.128906 14.28125 76.828125 13.445312 75.25 13.445312 C 73.898438 13.445312 73.144531 14.28125 73.144531 15.117188 C 73.144531 15.878906 73.820312 16.714844 75.023438 17.625 L 75.777344 18.234375 C 77.730469 19.527344 78.484375 20.4375 78.484375 21.957031 "/>
<path style=" stroke:none;fill-rule:nonzero;fill:rgb(100%,100%,100%);fill-opacity:1;" d="M 51.183594 19.601562 C 50.957031 20.210938 50.882812 20.664062 50.882812 21.199219 L 50.882812 22.566406 C 50.882812 22.871094 50.882812 23.402344 50.882812 24.085938 C 50.882812 24.542969 51.109375 24.921875 51.558594 24.921875 C 51.710938 24.921875 52.3125 24.996094 52.464844 24.996094 L 52.464844 25.378906 L 47.199219 25.378906 L 47.199219 24.996094 C 47.347656 24.996094 48.027344 24.996094 48.25 24.921875 C 48.402344 24.921875 48.777344 24.84375 48.777344 24.085938 C 48.777344 23.402344 48.851562 22.871094 48.851562 22.566406 L 48.851562 21.199219 C 48.851562 20.363281 48.628906 19.980469 48.476562 19.527344 C 48.402344 19.222656 46.222656 15.421875 45.769531 14.585938 C 45.394531 13.976562 45.015625 13.671875 44.714844 13.445312 C 44.492188 13.371094 44.039062 13.292969 43.8125 13.292969 L 43.8125 12.914062 L 47.125 12.914062 C 47.125 12.914062 47.199219 13.140625 47.648438 14.128906 C 47.800781 14.585938 49.980469 18.6875 50.28125 19.070312 C 50.28125 19.070312 52.464844 14.8125 53.515625 12.914062 L 55.847656 12.914062 L 55.847656 13.292969 C 55.09375 13.292969 54.71875 13.597656 54.191406 14.207031 C 53.667969 14.8125 51.484375 18.917969 51.183594 19.601562 "/>
<path style=" stroke:none;fill-rule:nonzero;fill:rgb(100%,100%,100%);fill-opacity:1;" d="M 30.351562 22.566406 C 30.351562 22.566406 29.976562 24.390625 29.902344 24.84375 C 29.824219 25.226562 29.75 25.226562 29.75 25.226562 L 21.402344 25.226562 L 21.402344 24.84375 C 21.703125 24.84375 22.15625 24.84375 22.304688 24.769531 C 22.605469 24.695312 22.757812 24.464844 22.757812 24.007812 C 22.832031 23.402344 22.832031 22.109375 22.832031 20.664062 L 22.832031 17.550781 C 22.832031 15.195312 22.832031 14.8125 22.832031 14.355469 C 22.832031 13.75 22.757812 13.597656 22.15625 13.445312 C 22.078125 13.445312 21.628906 13.445312 21.402344 13.445312 L 21.402344 13.066406 L 24.785156 13.066406 L 24.785156 14.433594 C 24.785156 14.433594 24.785156 15.269531 24.785156 17.625 L 24.785156 20.742188 C 24.785156 22.945312 24.785156 23.855469 25.085938 24.160156 C 25.386719 24.3125 25.988281 24.542969 27.269531 24.542969 C 28.398438 24.542969 28.773438 24.464844 29.148438 24.085938 C 29.449219 23.78125 29.601562 23.402344 29.824219 22.640625 L 30.351562 22.640625 Z M 30.351562 22.566406 "/>
<path style=" stroke:none;fill-rule:nonzero;fill:rgb(100%,100%,100%);fill-opacity:1;" d="M 20.5 22.566406 C 20.5 22.566406 20.125 24.390625 20.050781 24.84375 C 19.972656 25.226562 19.824219 25.226562 19.824219 25.226562 L 11.476562 25.226562 L 11.476562 24.84375 C 11.699219 24.84375 12.226562 24.84375 12.378906 24.769531 C 12.679688 24.695312 12.828125 24.464844 12.828125 24.007812 C 12.902344 23.402344 12.902344 22.109375 12.902344 20.664062 L 12.902344 17.550781 C 12.902344 15.195312 12.902344 14.8125 12.902344 14.355469 C 12.902344 13.75 12.828125 13.597656 12.226562 13.445312 C 12.152344 13.445312 11.699219 13.445312 11.476562 13.445312 L 11.476562 13.066406 L 14.859375 13.066406 L 14.859375 14.433594 C 14.859375 14.433594 14.859375 15.269531 14.859375 17.625 L 14.859375 20.742188 C 14.859375 22.945312 14.859375 23.855469 15.160156 24.160156 C 15.460938 24.3125 16.0625 24.542969 17.339844 24.542969 C 18.46875 24.542969 18.84375 24.464844 19.222656 24.085938 C 19.523438 23.78125 19.671875 23.402344 19.898438 22.640625 L 20.5 22.640625 Z M 20.5 22.566406 "/>
<path style=" stroke:none;fill-rule:nonzero;fill:rgb(100%,100%,100%);fill-opacity:1;" d="M 43.738281 18.765625 C 43.738281 22.488281 41.40625 25.453125 37.347656 25.453125 C 32.910156 25.453125 31.253906 22.035156 31.253906 19.070312 C 31.253906 16.03125 33.136719 12.683594 37.570312 12.683594 C 41.484375 12.683594 43.738281 15.195312 43.738281 18.765625 M 41.484375 19.449219 C 41.484375 15.800781 39.601562 13.445312 37.046875 13.445312 C 35.164062 13.445312 33.359375 14.890625 33.359375 18.613281 C 33.359375 21.730469 34.941406 24.695312 37.796875 24.695312 C 40.128906 24.695312 41.484375 22.871094 41.484375 19.449219 "/>
<path style=" stroke:none;fill-rule:nonzero;fill:rgb(100%,100%,100%);fill-opacity:1;" d="M 68.933594 18.839844 C 68.933594 21.046875 68.105469 22.640625 67.277344 23.554688 C 66.527344 24.3125 65.097656 25.226562 62.164062 25.226562 L 56.074219 25.226562 L 56.074219 24.84375 C 57.125 24.84375 57.578125 24.84375 57.652344 24.007812 C 57.726562 23.324219 57.726562 21.578125 57.726562 20.664062 L 57.726562 17.550781 C 57.726562 15.195312 57.726562 14.8125 57.726562 14.355469 C 57.726562 13.75 57.5 13.597656 57.050781 13.445312 C 56.976562 13.445312 56.523438 13.445312 56.222656 13.445312 L 56.222656 13.066406 L 61.1875 13.066406 C 63.140625 13.066406 65.773438 13.066406 67.503906 14.890625 C 68.179688 15.574219 68.933594 16.941406 68.933594 18.839844 M 66.902344 19.375 C 66.902344 15.421875 64.34375 13.671875 60.886719 13.671875 C 60.585938 13.671875 60.058594 13.75 59.984375 13.75 C 59.832031 13.824219 59.832031 13.976562 59.832031 14.128906 C 59.832031 14.738281 59.832031 16.03125 59.832031 17.320312 L 59.832031 21.882812 C 59.832031 23.554688 59.910156 23.855469 60.132812 24.160156 C 60.433594 24.464844 60.886719 24.617188 62.089844 24.617188 C 65.324219 24.695312 66.902344 22.871094 66.902344 19.375 "/>
</g>
</svg>
